<svg xmlns="http://www.w3.org/2000/svg" viewBox="0 0 1280 900" role="img" aria-labelledby="title desc">
  <title id="title">Premium black garlic product still life</title>
  <desc id="desc">Black garlic bulbs and cloves arranged on a dark stone surface with warm gold highlights.</desc>
  <defs>
    <radialGradient id="plate" cx="50%" cy="42%" r="62%">
      <stop offset="0" stop-color="#3b332b"/>
      <stop offset="0.58" stop-color="#171614"/>
      <stop offset="1" stop-color="#080807"/>
    </radialGradient>
    <radialGradient id="garlic" cx="35%" cy="28%" r="70%">
      <stop offset="0" stop-color="#3e3029"/>
      <stop offset="0.5" stop-color="#151111"/>
      <stop offset="1" stop-color="#050404"/>
    </radialGradient>
    <radialGradient id="clove" cx="32%" cy="24%" r="72%">
      <stop offset="0" stop-color="#766056"/>
      <stop offset="0.36" stop-color="#241a18"/>
      <stop offset="1" stop-color="#050404"/>
    </radialGradient>
    <linearGradient id="paper" x1="0" x2="1" y1="0" y2="1">
      <stop offset="0" stop-color="#f3e2c5"/>
      <stop offset="1" stop-color="#c89d58"/>
    </linearGradient>
    <filter id="shadow" x="-20%" y="-20%" width="140%" height="140%">
      <feDropShadow dx="0" dy="26" stdDeviation="26" flood-color="#000" flood-opacity=".45"/>
    </filter>
  </defs>
  <rect width="1280" height="900" fill="#11100e"/>
  <path d="M0 650c211-54 399-57 565-9 221 64 452 41 715-77v336H0z" fill="#2a2019"/>
  <circle cx="640" cy="482" r="330" fill="url(#plate)" filter="url(#shadow)"/>
  <circle cx="642" cy="482" r="278" fill="none" stroke="#c69a4b" stroke-opacity=".36" stroke-width="3"/>
  <g filter="url(#shadow)">
    <ellipse cx="578" cy="412" rx="165" ry="132" fill="#d7cab8"/>
    <path d="M432 428c3-91 70-160 150-157 84 3 157 85 148 173-13 118-116 165-206 118-57-30-94-76-92-134z" fill="#e8dccb"/>
    <path d="M480 337c38 58 32 148-13 205M546 296c-8 86 4 178 52 258M642 315c-37 64-39 146-6 226M704 395c-42 38-73 87-93 148" fill="none" stroke="#bba88e" stroke-width="12" stroke-linecap="round" opacity=".68"/>
    <path d="M533 236c34 14 52 40 54 78-41-8-70-25-87-52 10-14 20-22 33-26z" fill="#cdbb9f"/>
  </g>
  <g filter="url(#shadow)">
    <path d="M468 446c74-34 154 12 166 87 15 92-61 171-151 157-83-13-136-89-118-169 10-40 41-61 103-75z" fill="url(#garlic)"/>
    <path d="M516 465c-49 36-70 90-62 162M574 481c-25 49-34 99-23 151" fill="none" stroke="#5e4b40" stroke-width="8" stroke-linecap="round" opacity=".45"/>
    <ellipse cx="520" cy="533" rx="35" ry="46" fill="#0b0808" opacity=".72"/>
    <ellipse cx="583" cy="578" rx="40" ry="55" fill="#0a0707" opacity=".72"/>
  </g>
  <g filter="url(#shadow)">
    <path d="M716 401c73-43 160-9 192 64 40 92-21 189-120 189-84 0-150-63-153-143-1-43 24-75 81-110z" fill="url(#garlic)"/>
    <path d="M740 431c-25 61-29 126-10 194M825 416c-29 69-28 136 3 201" fill="none" stroke="#5d493e" stroke-width="8" stroke-linecap="round" opacity=".42"/>
    <ellipse cx="784" cy="510" rx="42" ry="60" fill="#0a0707" opacity=".72"/>
    <ellipse cx="850" cy="548" rx="35" ry="48" fill="#0a0707" opacity=".7"/>
  </g>
  <g filter="url(#shadow)">
    <path d="M665 637c53-78 133-88 175-36 39 50 12 130-52 151-75 25-139-30-123-115z" fill="url(#clove)"/>
    <path d="M862 315c61-38 127-22 151 35 25 60-18 123-82 122-58-1-101-49-91-106 4-24 12-39 22-51z" fill="url(#clove)"/>
    <path d="M315 617c62-31 129-8 148 49 20 61-29 119-93 111-56-7-93-62-77-116 5-18 12-32 22-44z" fill="url(#clove)"/>
  </g>
  <g transform="translate(846 652) rotate(-8)" filter="url(#shadow)">
    <rect x="0" y="0" width="205" height="90" rx="8" fill="url(#paper)"/>
    <text x="102" y="38" text-anchor="middle" font-family="Georgia, serif" font-size="23" font-weight="700" fill="#17120f">Black Garlic</text>
    <text x="102" y="65" text-anchor="middle" font-family="Arial, sans-serif" font-size="22" letter-spacing="4" fill="#17120f">UNTI</text>
  </g>
</svg>
