<svg xmlns="http://www.w3.org/2000/svg" viewBox="0 0 720 720" role="img" aria-labelledby="title desc">
  <title id="title">Black Garlic Unti premium jar</title>
  <desc id="desc">A premium jar of Black Garlic Unti with black garlic cloves beside it.</desc>
  <defs>
    <linearGradient id="glass" x1="0" x2="1" y1="0" y2="1">
      <stop offset="0" stop-color="#fff7ea" stop-opacity=".82"/>
      <stop offset=".45" stop-color="#f2dcb1" stop-opacity=".34"/>
      <stop offset="1" stop-color="#1a1411" stop-opacity=".7"/>
    </linearGradient>
    <linearGradient id="label" x1="0" x2="1">
      <stop offset="0" stop-color="#f0d49a"/>
      <stop offset="1" stop-color="#b9842b"/>
    </linearGradient>
    <radialGradient id="clove" cx="35%" cy="25%" r="68%">
      <stop offset="0" stop-color="#6b544b"/>
      <stop offset=".45" stop-color="#181111"/>
      <stop offset="1" stop-color="#050404"/>
    </radialGradient>
    <filter id="shadow" x="-25%" y="-20%" width="150%" height="150%">
      <feDropShadow dx="0" dy="24" stdDeviation="22" flood-color="#000" flood-opacity=".38"/>
    </filter>
  </defs>
  <rect width="720" height="720" rx="8" fill="#181411"/>
  <circle cx="358" cy="400" r="258" fill="#292019"/>
  <g filter="url(#shadow)">
    <rect x="245" y="126" width="230" height="58" rx="16" fill="#201813"/>
    <path d="M278 174h164l19 44v272c0 62-45 94-101 94s-101-32-101-94V218z" fill="url(#glass)" stroke="#efd3a0" stroke-opacity=".36" stroke-width="3"/>
    <path d="M289 241c45 26 94 27 143 0v211c-45 31-94 33-143 0z" fill="#0f0b0a" opacity=".82"/>
    <rect x="281" y="335" width="158" height="104" rx="8" fill="url(#label)"/>
    <text x="360" y="374" text-anchor="middle" font-family="Georgia, serif" font-size="26" font-weight="700" fill="#17100d">Black Garlic</text>
    <text x="360" y="406" text-anchor="middle" font-family="Arial, sans-serif" font-size="28" font-weight="700" letter-spacing="5" fill="#17100d">UNTI</text>
    <text x="360" y="426" text-anchor="middle" font-family="Arial, sans-serif" font-size="12" fill="#2a1a10">Premium Fermented Garlic</text>
    <path d="M306 196h108" stroke="#fff4d7" stroke-width="9" stroke-linecap="round" opacity=".26"/>
  </g>
  <g filter="url(#shadow)">
    <path d="M132 500c38-65 104-73 140-27 35 45 8 110-52 126-60 17-110-31-88-99z" fill="url(#clove)"/>
    <path d="M466 524c48-72 126-80 166-28 39 52 2 125-68 137-64 11-111-42-98-109z" fill="url(#clove)"/>
    <path d="M181 378c39-52 97-52 124-10 27 43-3 99-56 105-50 5-86-42-68-95z" fill="url(#clove)"/>
  </g>
</svg>
